<svg width="76" height="26" viewBox="0 0 76 26" fill="none" xmlns="http://www.w3.org/2000/svg">
<path d="M34.8608 10.3008L37.9342 3.33838H39.8737L42.957 10.3008H40.9081L38.5011 4.30317H39.2769L36.8699 10.3008H34.8608ZM36.5417 8.94809L37.0489 7.49593H40.4506L40.9578 8.94809H36.5417ZM44.0127 10.3008V3.33838H47.1955C47.832 3.33838 48.3791 3.44116 48.8366 3.64672C49.3008 3.85227 49.6588 4.15066 49.9108 4.54188C50.1628 4.92647 50.2888 5.384 50.2888 5.91447C50.2888 6.43831 50.1628 6.89252 49.9108 7.27711C49.6588 7.6617 49.3008 7.96009 48.8366 8.17228C48.3791 8.37783 47.832 8.48061 47.1955 8.48061H45.1067L45.982 7.62523V10.3008H44.0127ZM45.982 7.8341L45.1067 6.92899H47.0761C47.4872 6.92899 47.7922 6.83947 47.9912 6.66044C48.1967 6.48141 48.2995 6.23275 48.2995 5.91447C48.2995 5.58956 48.1967 5.33759 47.9912 5.15855C47.7922 4.97952 47.4872 4.89 47.0761 4.89H45.1067L45.982 3.98489V7.8341ZM51.7463 10.3008V3.33838H53.7156V10.3008H51.7463ZM58.0608 10.44C57.4906 10.44 56.9402 10.3704 56.4098 10.2312C55.8859 10.0853 55.4582 9.89961 55.1267 9.67417L55.7732 8.22201C56.0849 8.42093 56.4429 8.58671 56.8474 8.71932C57.2585 8.84531 57.6663 8.9083 58.0708 8.9083C58.3427 8.9083 58.5615 8.88509 58.7272 8.83868C58.893 8.78563 59.0124 8.71932 59.0853 8.63975C59.1649 8.55355 59.2047 8.45409 59.2047 8.34136C59.2047 8.18222 59.1317 8.05624 58.9858 7.9634C58.84 7.87057 58.651 7.79432 58.4189 7.73464C58.1868 7.67496 57.9282 7.61528 57.6431 7.55561C57.3646 7.49593 57.0828 7.41967 56.7977 7.32684C56.5192 7.23401 56.2639 7.11466 56.0318 6.96878C55.7997 6.81627 55.6107 6.62066 55.4649 6.38195C55.319 6.1366 55.246 5.82827 55.246 5.45694C55.246 5.0392 55.3588 4.66124 55.5842 4.32307C55.8163 3.98489 56.1611 3.71303 56.6186 3.50747C57.0762 3.30191 57.6464 3.19914 58.3294 3.19914C58.7869 3.19914 59.2345 3.25218 59.6721 3.35828C60.1164 3.45774 60.5109 3.60693 60.8558 3.80586L60.249 5.26796C59.9175 5.08893 59.5893 4.95631 59.2643 4.87011C58.9394 4.77728 58.6245 4.73086 58.3194 4.73086C58.0476 4.73086 57.8288 4.7607 57.663 4.82038C57.4972 4.87343 57.3779 4.94637 57.3049 5.0392C57.232 5.13203 57.1955 5.23812 57.1955 5.35748C57.1955 5.50999 57.2651 5.63266 57.4044 5.72549C57.5503 5.81169 57.7392 5.88463 57.9713 5.94431C58.21 5.99736 58.4686 6.05372 58.7471 6.1134C59.0323 6.17307 59.3141 6.24933 59.5926 6.34216C59.8777 6.42836 60.1363 6.54772 60.3684 6.70023C60.6005 6.84611 60.7861 7.04172 60.9254 7.28706C61.0713 7.52577 61.1442 7.82747 61.1442 8.19217C61.1442 8.59665 61.0282 8.97129 60.7961 9.3161C60.5706 9.65427 60.2291 9.92614 59.7716 10.1317C59.3207 10.3373 58.7505 10.44 58.0608 10.44ZM39.1774 22.44C38.6271 22.44 38.1165 22.3538 37.6457 22.1814C37.1749 22.0024 36.7671 21.7504 36.4223 21.4255C36.0841 21.1006 35.8189 20.7193 35.6266 20.2817C35.4343 19.8374 35.3382 19.3501 35.3382 18.8196C35.3382 18.2891 35.4343 17.8051 35.6266 17.3674C35.8189 16.9232 36.0875 16.5386 36.4323 16.2137C36.7771 15.8887 37.1849 15.6401 37.6557 15.4677C38.1331 15.2887 38.6536 15.1991 39.2172 15.1991C39.8737 15.1991 40.4605 15.3085 40.9777 15.5274C41.4949 15.7462 41.9226 16.0611 42.2608 16.4723L41.0076 17.6061C40.7688 17.3475 40.5102 17.1552 40.2317 17.0293C39.9599 16.8966 39.6549 16.8303 39.3167 16.8303C39.0183 16.8303 38.7464 16.8767 38.5011 16.9696C38.2558 17.0624 38.0469 17.1983 37.8745 17.3774C37.7021 17.5498 37.5661 17.7586 37.4667 18.004C37.3738 18.2427 37.3274 18.5146 37.3274 18.8196C37.3274 19.1113 37.3738 19.3799 37.4667 19.6252C37.5661 19.8706 37.7021 20.0828 37.8745 20.2618C38.0469 20.4342 38.2524 20.5701 38.4911 20.6696C38.7365 20.7624 39.005 20.8088 39.2968 20.8088C39.5886 20.8088 39.8737 20.7624 40.1522 20.6696C40.4307 20.5701 40.7125 20.4044 40.9976 20.1723L42.1016 21.5548C41.7038 21.8399 41.243 22.0588 40.7191 22.2113C40.1953 22.3638 39.6814 22.44 39.1774 22.44ZM40.361 21.2962V18.6704H42.1016V21.5548L40.361 21.2962ZM43.012 22.3008L46.0854 15.3384H48.025L51.1083 22.3008H49.0594L46.6524 16.3032H47.4282L45.0212 22.3008H43.012ZM44.693 20.9481L45.2002 19.4959H48.6019L49.1091 20.9481H44.693ZM52.1639 22.3008V15.3384H53.7852L56.6696 20.0728H55.8142L58.6191 15.3384H60.2403L60.2602 22.3008H58.45L58.4301 18.0935H58.7384L56.6398 21.6145H55.7645L53.6062 18.0935H53.9841V22.3008H52.1639ZM63.9612 18.0338H67.1938V19.5059H63.9612V18.0338ZM64.1005 20.779H67.7408V22.3008H62.151V15.3384H67.6115V16.8602H64.1005V20.779ZM71.7778 22.44C71.2075 22.44 70.6572 22.3704 70.1267 22.2312C69.6029 22.0853 69.1752 21.8996 68.8436 21.6742L69.4901 20.222C69.8018 20.4209 70.1598 20.5867 70.5643 20.7193C70.9754 20.8453 71.3832 20.9083 71.7877 20.9083C72.0596 20.9083 72.2784 20.8851 72.4442 20.8387C72.6099 20.7856 72.7293 20.7193 72.8022 20.6398C72.8818 20.5536 72.9216 20.4541 72.9216 20.3414C72.9216 20.1822 72.8487 20.0562 72.7028 19.9634C72.5569 19.8706 72.3679 19.7943 72.1358 19.7346C71.9038 19.675 71.6452 19.6153 71.36 19.5556C71.0815 19.4959 70.7997 19.4197 70.5146 19.3268C70.2361 19.234 69.9808 19.1147 69.7487 18.9688C69.5167 18.8163 69.3277 18.6207 69.1818 18.3819C69.0359 18.1366 68.963 17.8283 68.963 17.4569C68.963 17.0392 69.0757 16.6612 69.3012 16.3231C69.5332 15.9849 69.878 15.713 70.3356 15.5075C70.7931 15.3019 71.3633 15.1991 72.0463 15.1991C72.5039 15.1991 72.9514 15.2522 73.3891 15.3583C73.8333 15.4577 74.2279 15.6069 74.5727 15.8059L73.966 17.268C73.6344 17.0889 73.3062 16.9563 72.9813 16.8701C72.6564 16.7773 72.3414 16.7309 72.0364 16.7309C71.7645 16.7309 71.5457 16.7607 71.3799 16.8204C71.2142 16.8734 71.0948 16.9464 71.0219 17.0392C70.9489 17.132 70.9124 17.2381 70.9124 17.3575C70.9124 17.51 70.9821 17.6327 71.1213 17.7255C71.2672 17.8117 71.4562 17.8846 71.6883 17.9443C71.927 17.9974 72.1856 18.0537 72.4641 18.1134C72.7492 18.1731 73.031 18.2493 73.3095 18.3422C73.5946 18.4284 73.8532 18.5477 74.0853 18.7002C74.3174 18.8461 74.5031 19.0417 74.6423 19.2871C74.7882 19.5258 74.8611 19.8275 74.8611 20.1922C74.8611 20.5967 74.7451 20.9713 74.513 21.3161C74.2876 21.6543 73.9461 21.9261 73.4885 22.1317C73.0376 22.3373 72.4674 22.44 71.7778 22.44Z" fill="#4D506C"/>
<rect width="26" height="26" fill="#4D506C"/>
<path fill-rule="evenodd" clip-rule="evenodd" d="M22.2083 21.9337L21.1366 14.2132C21.1149 14.0377 20.985 13.9061 20.8118 13.8732L14.6197 12.7875L21.6021 11.6141C21.7103 11.5921 21.7861 11.4934 21.7645 11.3838L21.5804 10.2761C21.5588 10.1665 21.4613 10.0897 21.3531 10.1116L15.0419 11.1754L16.276 4.8147C16.2977 4.70503 16.2327 4.60633 16.1245 4.57343L15.0311 4.3541C14.9228 4.33216 14.8146 4.40893 14.7929 4.5186L13.4181 11.5373L12.6387 5.36303C12.617 5.18757 12.4871 5.045 12.3139 5.02307L4.85528 3.79479C4.72538 3.77286 4.6063 3.88253 4.62795 4.02509L5.5914 11.625C5.61305 11.8005 5.74296 11.9431 5.91616 11.965L12.249 12.9959L5.32077 13.8513C5.13674 13.8732 4.99601 14.0158 4.97436 14.1912L3.7944 21.9776C3.77275 22.1092 3.881 22.2189 4.01091 22.2079L11.7294 21.2538C11.9134 21.2319 12.0541 21.0893 12.0758 20.9138L13.1475 13.8622L14.0676 20.4971C14.0893 20.6726 14.2192 20.8042 14.3924 20.8371L21.9701 22.164C22.1 22.186 22.2191 22.0763 22.1975 21.9337H22.2083Z" fill="#25273F"/>
</svg>
