<svg width="76" height="46" viewBox="0 0 76 46" fill="none" xmlns="http://www.w3.org/2000/svg">
<path d="M27.1669 14.7829C29.7527 14.7829 31.8489 12.7544 31.8489 10.2521C31.8489 7.74981 29.7527 5.72131 27.1669 5.72131C24.5811 5.72131 22.4848 7.74981 22.4848 10.2521C22.4848 12.7544 24.5811 14.7829 27.1669 14.7829Z" fill="url(#paint0_radial_1791_12743)"/>
<path d="M31.7536 7.80896C32.4118 8.71076 32.7985 9.81128 32.7985 10.9992C32.7985 14.0568 30.2372 16.5355 27.0774 16.5355C23.9176 16.5355 21.4653 14.1609 21.3599 11.1931C21.3576 11.2581 21.3564 11.3235 21.3564 11.389C21.3564 14.5191 23.9785 17.0566 27.2132 17.0566C30.4478 17.0566 33.07 14.5191 33.07 11.389C33.07 10.0312 32.5764 8.785 31.7536 7.80896Z" fill="#7A60FF"/>
<path d="M26.0839 9.38745C26.9271 8.91976 27.3324 8.07083 26.9891 7.4913C26.6458 6.91177 25.684 6.82111 24.8408 7.2888C23.9977 7.75648 23.5924 8.60542 23.9357 9.18495C24.279 9.76447 25.2408 9.85514 26.0839 9.38745Z" fill="#AD9DFF"/>
<path d="M36.8738 5.349C34.6987 5.349 32.5977 5.67853 30.6355 6.28109C32.1164 7.19435 33.2178 8.67251 33.6621 10.4237C34.6987 10.1978 35.7724 10.0659 36.883 10.0659C40.6871 10.0659 44.1487 11.5064 46.7217 13.832L47.1937 13.8131V14.1238L47.8972 14.0862C48.6376 14.0485 49.3873 14.0014 50.137 13.9638L52.8119 13.8131H53.793C50.0259 8.70076 43.8525 5.349 36.8738 5.349Z" fill="url(#paint1_radial_1791_12743)"/>
<path d="M23.6846 18.1066C23.6198 18.0689 23.5458 18.0878 23.518 18.1537C22.7868 19.9331 22.3796 21.8726 22.3796 23.9063V24.0287C22.3981 21.9668 22.8886 20.0179 23.7402 18.2667C23.7679 18.2102 23.7402 18.1443 23.6939 18.1066H23.6846Z" fill="black"/>
<path d="M37.7717 11.3654C36.4018 11.3654 35.0968 11.5913 33.8658 11.9962V12.1374C33.8658 12.4952 33.8288 12.853 33.7732 13.1919C35.3097 12.4858 37.0312 12.0715 38.8453 12.0715C41.3443 12.0715 43.6582 12.8153 45.5741 14.0957C43.4546 12.3916 40.7334 11.356 37.7624 11.356H37.7717V11.3654Z" fill="#7A60FF"/>
<path d="M37.3086 10.3862C36.0776 10.3862 34.8836 10.5557 33.7452 10.8476C33.773 11.0171 33.8007 11.1959 33.8192 11.3654C35.0873 10.9982 36.4293 10.7911 37.8269 10.7911C41.0293 10.7911 43.9726 11.8456 46.3143 13.6062C43.8893 11.5914 40.7424 10.3768 37.2993 10.3768L37.3086 10.3862Z" fill="#7A60FF"/>
<path d="M23.6846 18.1066C23.6198 18.0689 23.5458 18.0878 23.518 18.1537C22.7868 19.9331 22.3796 21.8726 22.3796 23.9063V24.0287C22.3981 21.9668 22.8886 20.0179 23.7402 18.2667C23.7679 18.2102 23.7402 18.1443 23.6939 18.1066H23.6846Z" fill="url(#paint2_linear_1791_12743)" fill-opacity="0.73"/>
<path d="M23.9346 24.2921C23.9346 22.4467 24.3326 20.6955 25.0268 19.1044C25.1008 18.9349 25.0083 18.7278 24.8324 18.6619C24.6751 18.6054 24.5085 18.6713 24.4437 18.8314C23.7865 20.3943 23.4163 22.0984 23.4163 23.8872C23.4163 28.1899 25.5173 32.0218 28.7753 34.4792C25.8135 32.0218 23.9346 28.3782 23.9346 24.3015V24.2921Z" fill="url(#paint3_linear_1791_12743)" fill-opacity="0.58"/>
<path d="M38.5117 8.23978C36.6421 8.23978 34.8558 8.5693 33.1898 9.13421C33.3841 9.54847 33.5415 9.97215 33.6526 10.4241C34.6892 10.1981 35.7628 10.0569 36.8735 10.0569C40.6775 10.0569 44.1391 11.4974 46.7122 13.8229L47.0094 14.1148H47.1842L47.8876 14.0771C48.6281 14.0395 49.3778 13.9924 50.1275 13.9547L50.942 13.9076C47.9894 10.4429 43.519 8.22095 38.521 8.22095L38.5117 8.23978Z" fill="url(#paint4_radial_1791_12743)"/>
<path d="M32.2829 7.71197C33.9118 7.26946 35.6241 7.02467 37.4012 7.02467C40.2889 7.02467 43.0286 7.64606 45.4906 8.75704C42.8435 7.45776 39.8632 6.72339 36.6978 6.72339C35.041 6.72339 33.4583 6.94935 31.9311 7.31654C32.0515 7.43893 32.1718 7.57074 32.2829 7.71197Z" fill="#7A60FF"/>
<path d="M23.5119 40.1941C23.3903 40.1966 23.2752 40.1996 23.166 40.2038C23.0567 40.2079 22.9534 40.213 22.8557 40.2195C22.7579 40.226 22.6656 40.2339 22.5783 40.2435C22.4911 40.253 22.4088 40.2644 22.331 40.2778C22.2531 40.2912 22.18 40.3066 22.1107 40.3245C22.0415 40.3422 21.9764 40.3626 21.9148 40.3855C21.8533 40.4085 21.7953 40.4341 21.7404 40.4629C21.6855 40.4916 21.6338 40.5235 21.5847 40.5588C21.5355 40.5941 21.489 40.6327 21.4446 40.6753C21.4002 40.7177 21.358 40.764 21.3173 40.8143C21.2768 40.8647 21.2378 40.9191 21.2001 40.978C21.1624 41.0369 21.1259 41.1002 21.0901 41.1684C21.0543 41.2365 21.0191 41.3094 20.9844 41.3876C20.9495 41.4656 20.915 41.5488 20.8801 41.6375C20.8451 41.7262 20.8102 41.8203 20.7745 41.9203C20.7388 42.0202 20.7022 42.1259 20.6646 42.2379C20.662 42.1202 20.6589 42.0089 20.6546 41.9032C20.6503 41.7975 20.645 41.6975 20.6383 41.6029C20.6317 41.5083 20.6235 41.4189 20.6136 41.3345C20.6037 41.2501 20.592 41.1704 20.5781 41.0951C20.5643 41.0198 20.5484 40.949 20.5299 40.882C20.5115 40.815 20.4905 40.7521 20.4669 40.6924C20.4432 40.6328 20.4166 40.5768 20.3868 40.5237C20.3571 40.4705 20.3242 40.4205 20.2877 40.373C20.2513 40.3254 20.2113 40.2804 20.1673 40.2374C20.1235 40.1944 20.0757 40.1536 20.0237 40.1143C19.9716 40.0751 19.9153 40.0373 19.8545 40.0008C19.7936 39.9643 19.7282 39.929 19.6577 39.8943C19.5874 39.8597 19.512 39.8257 19.4312 39.792C19.3506 39.7583 19.2646 39.7249 19.173 39.6911C19.0813 39.6574 18.9841 39.6235 18.8808 39.5889C18.7775 39.5544 18.6683 39.519 18.5525 39.4826C18.6741 39.4801 18.7892 39.4771 18.8985 39.473C19.0077 39.4688 19.111 39.4637 19.2088 39.4572C19.3066 39.4507 19.3989 39.4428 19.4861 39.4332C19.5733 39.4237 19.6556 39.4123 19.7335 39.3989C19.8113 39.3855 19.8845 39.3701 19.9537 39.3522C20.0229 39.3345 20.088 39.3141 20.1496 39.2913C20.2111 39.2682 20.2691 39.2426 20.324 39.2138C20.3789 39.1851 20.4306 39.1532 20.4798 39.1179C20.5289 39.0826 20.5754 39.044 20.6199 39.0014C20.6643 38.959 20.7064 38.9127 20.7471 38.8624C20.7876 38.812 20.8266 38.7576 20.8643 38.6987C20.9021 38.6398 20.9385 38.5765 20.9744 38.5083C21.0102 38.4402 21.0453 38.3673 21.0801 38.2891C21.1149 38.2111 21.1494 38.1279 21.1844 38.0392C21.2192 37.9505 21.2543 37.8564 21.29 37.7564C21.3257 37.6565 21.3622 37.5508 21.3999 37.4388C21.4024 37.5565 21.4055 37.6678 21.4098 37.7735C21.4141 37.8792 21.4194 37.9792 21.4261 38.0738C21.4328 38.1684 21.441 38.2578 21.4509 38.3422C21.4608 38.4266 21.4725 38.5063 21.4863 38.5816C21.5002 38.6569 21.5161 38.7277 21.5346 38.7947C21.5529 38.8617 21.574 38.9246 21.5976 38.9843C21.6213 39.0438 21.6479 39.0999 21.6776 39.153C21.7073 39.2062 21.7402 39.2562 21.7767 39.3038C21.8132 39.3513 21.8531 39.3963 21.8971 39.4393C21.9409 39.4823 21.9888 39.5231 22.0408 39.5624C22.0928 39.6016 22.1491 39.6394 22.2099 39.6759C22.2708 39.7124 22.3362 39.7477 22.4067 39.7824C22.4771 39.817 22.5524 39.851 22.6332 39.8847C22.7138 39.9184 22.7998 39.9519 22.8915 39.9856C22.9831 40.0193 23.0804 40.0532 23.1836 40.0878C23.2869 40.1223 23.3961 40.1577 23.5119 40.1941Z" fill="#FD4542"/>
<path d="M12.5585 8.11605C12.6371 8.20594 12.7121 8.2905 12.7842 8.36991C12.8564 8.44932 12.9257 8.52367 12.9925 8.59299C13.0594 8.66231 13.1238 8.72668 13.1866 8.78619C13.2494 8.84569 13.3103 8.90036 13.37 8.95036C13.4298 9.00036 13.4883 9.0456 13.5463 9.08636C13.6042 9.12705 13.6616 9.16325 13.7187 9.19501C13.7758 9.22677 13.8331 9.25413 13.8908 9.27723C13.9484 9.30034 14.0067 9.31917 14.0659 9.33381C14.1252 9.34846 14.1857 9.35902 14.2477 9.3656C14.3098 9.37218 14.3735 9.37479 14.4395 9.37349C14.5055 9.3722 14.5736 9.36712 14.6447 9.35834C14.7157 9.34956 14.7895 9.337 14.8668 9.32093C14.944 9.30486 15.0246 9.2852 15.1091 9.26222C15.1937 9.23925 15.2823 9.21276 15.3752 9.183C15.4683 9.15332 15.5659 9.12032 15.6686 9.08411C15.7713 9.04799 15.8791 9.00867 15.9926 8.96642C15.8998 9.04247 15.8124 9.11511 15.7303 9.1849C15.6483 9.2547 15.5714 9.32177 15.4998 9.38645C15.4282 9.45112 15.3616 9.51352 15.3001 9.57427C15.2386 9.63503 15.1821 9.69394 15.1305 9.75178C15.0788 9.80962 15.0321 9.86626 14.99 9.92226C14.948 9.97827 14.9106 10.0338 14.8777 10.0891C14.8449 10.1443 14.8167 10.1998 14.7928 10.2556C14.7689 10.3113 14.7494 10.3677 14.7343 10.4251C14.7192 10.4824 14.7083 10.5409 14.7015 10.601C14.6947 10.6611 14.692 10.7227 14.6933 10.7865C14.6946 10.8504 14.6999 10.9164 14.709 10.9851C14.718 11.0539 14.731 11.1253 14.7476 11.2C14.7642 11.2748 14.7846 11.3527 14.8083 11.4346C14.832 11.5164 14.8594 11.6021 14.8902 11.6921C14.9208 11.7821 14.9549 11.8766 14.9923 11.9759C15.0297 12.0754 15.0703 12.1797 15.114 12.2895C15.0354 12.1996 14.9603 12.1151 14.8882 12.0357C14.8161 11.9563 14.7468 11.8819 14.6799 11.8126C14.6131 11.7433 14.5486 11.6789 14.4858 11.6194C14.423 11.5599 14.3622 11.5052 14.3024 11.4552C14.2426 11.4052 14.1841 11.36 14.1261 11.3192C14.0682 11.2785 14.0109 11.2423 13.9537 11.2106C13.8966 11.1788 13.8393 11.1515 13.7817 11.1283C13.724 11.1052 13.6658 11.0864 13.6065 11.0718C13.5472 11.0571 13.4868 11.0466 13.4247 11.04C13.3626 11.0334 13.2989 11.0308 13.233 11.0321C13.167 11.0334 13.0988 11.0385 13.0278 11.0472C12.9567 11.056 12.8829 11.0686 12.8057 11.0847C12.7284 11.1007 12.6479 11.1204 12.5633 11.1434C12.4787 11.1663 12.3901 11.1928 12.2972 11.2226C12.2041 11.2523 12.1065 11.2853 12.0039 11.3215C11.9011 11.3576 11.7933 11.3969 11.6798 11.4392C11.7727 11.3631 11.8601 11.2905 11.9421 11.2207C12.0242 11.1509 12.101 11.0838 12.1726 11.0191C12.2443 10.9545 12.3108 10.8921 12.3723 10.8313C12.4338 10.7706 12.4903 10.7116 12.542 10.6538C12.5936 10.596 12.6404 10.5393 12.6825 10.4832C12.7245 10.4272 12.7619 10.3717 12.7948 10.3164C12.8276 10.2611 12.8559 10.2057 12.8797 10.1499C12.9036 10.0941 12.9231 10.0378 12.9382 9.98039C12.9533 9.92303 12.9643 9.86454 12.9711 9.80447C12.9779 9.74441 12.9805 9.68277 12.9792 9.61892C12.9779 9.55508 12.9726 9.4891 12.9636 9.42034C12.9545 9.35159 12.9415 9.28018 12.9249 9.20544C12.9083 9.1307 12.888 9.05274 12.8642 8.97089C12.8405 8.88903 12.8131 8.80332 12.7824 8.71339C12.7517 8.62334 12.7176 8.52887 12.6802 8.42954C12.6428 8.33009 12.6022 8.22578 12.5586 8.11593L12.5585 8.11605Z" fill="url(#paint5_linear_1791_12743)"/>
<path d="M48.4556 2.64434C48.3666 2.62673 48.2822 2.61067 48.2021 2.59635C48.1219 2.58203 48.0457 2.56945 47.9735 2.55861C47.9013 2.54778 47.8328 2.53888 47.7676 2.53211C47.7024 2.52533 47.6406 2.5205 47.5816 2.51779C47.5226 2.51527 47.4669 2.51488 47.4135 2.51682C47.3601 2.51875 47.3093 2.5232 47.2605 2.53017C47.2117 2.53714 47.1651 2.54662 47.1203 2.55881C47.0756 2.571 47.0324 2.58609 46.9906 2.60389C46.9488 2.6217 46.9084 2.64259 46.8688 2.66639C46.8292 2.69019 46.7906 2.71728 46.7526 2.74747C46.7147 2.77766 46.6771 2.81113 46.6395 2.84809C46.6021 2.88505 46.5647 2.9253 46.5271 2.96922C46.4895 3.01314 46.4515 3.06074 46.4129 3.11202C46.3743 3.1633 46.335 3.21845 46.2946 3.27746C46.2542 3.33648 46.2128 3.39937 46.1698 3.46651C46.1268 3.53366 46.0822 3.60486 46.0358 3.68033C46.054 3.59422 46.0706 3.51256 46.0854 3.43497C46.1002 3.35738 46.1132 3.28366 46.1244 3.2138C46.1356 3.14376 46.1448 3.07758 46.1518 3.0145C46.1588 2.95142 46.1638 2.89163 46.1666 2.83454C46.1692 2.77746 46.1696 2.72348 46.1676 2.67181C46.1656 2.62015 46.161 2.571 46.1538 2.52379C46.1466 2.47657 46.1368 2.43149 46.1242 2.38814C46.1116 2.3448 46.096 2.303 46.0776 2.26256C46.0592 2.22212 46.0376 2.18303 46.013 2.14472C45.9884 2.10641 45.9605 2.06906 45.9293 2.0323C45.8981 1.99553 45.8635 1.95916 45.8253 1.92278C45.7871 1.88659 45.7455 1.85041 45.7001 1.81403C45.6547 1.77765 45.6055 1.74089 45.5526 1.70354C45.4996 1.6662 45.4426 1.62808 45.3816 1.58899C45.3206 1.54991 45.2556 1.50985 45.1863 1.46825C45.1169 1.42665 45.0433 1.3835 44.9653 1.33861C45.0543 1.35621 45.1387 1.37227 45.2188 1.38659C45.299 1.40091 45.3752 1.41349 45.4474 1.42432C45.5198 1.43516 45.5881 1.44406 45.6533 1.45083C45.7185 1.45761 45.7803 1.46244 45.8393 1.46515C45.8983 1.46767 45.9541 1.46806 46.0074 1.46612C46.0608 1.46419 46.1116 1.45974 46.1604 1.45277C46.2092 1.4458 46.2558 1.43632 46.3006 1.42413C46.3454 1.41194 46.3885 1.39685 46.4303 1.37905C46.4721 1.36124 46.5125 1.34035 46.5521 1.31655C46.5917 1.29275 46.6303 1.26566 46.6683 1.23547C46.7063 1.20528 46.7438 1.17181 46.7814 1.13485C46.819 1.09789 46.8562 1.05764 46.8938 1.01372C46.9314 0.969796 46.9694 0.922195 47.008 0.870918C47.0466 0.819641 47.086 0.764494 47.1263 0.705477C47.1667 0.64646 47.2081 0.583573 47.2513 0.516429C47.2943 0.449284 47.3389 0.378077 47.3853 0.302612C47.3671 0.388719 47.3505 0.470376 47.3357 0.547969C47.3209 0.625562 47.3079 0.699285 47.2967 0.769138C47.2855 0.838991 47.2763 0.905361 47.2693 0.968442C47.2623 1.03152 47.2573 1.09131 47.2545 1.1484C47.2519 1.20548 47.2515 1.25946 47.2535 1.31113C47.2555 1.36279 47.2601 1.41194 47.2673 1.45915C47.2745 1.50637 47.2843 1.55145 47.2969 1.5948C47.3095 1.63814 47.3251 1.67994 47.3435 1.72038C47.3619 1.76082 47.3835 1.79991 47.4081 1.83822C47.4327 1.87653 47.4607 1.91388 47.4918 1.95064C47.523 1.98741 47.5576 2.02378 47.5958 2.06016C47.634 2.09635 47.6756 2.13253 47.721 2.16891C47.7664 2.20529 47.8156 2.24205 47.8685 2.2794C47.9215 2.31674 47.9785 2.35486 48.0395 2.39395C48.1005 2.43303 48.1655 2.47309 48.2349 2.51488C48.3042 2.55649 48.3778 2.59964 48.4558 2.64453L48.4556 2.64434Z" fill="#FD4542"/>
<path d="M57.4833 40.8722C57.3156 40.9337 57.158 40.9919 57.0103 41.0476C56.8625 41.1033 56.7246 41.1564 56.596 41.208C56.4674 41.2595 56.3482 41.3091 56.2378 41.3582C56.1275 41.4071 56.026 41.4552 55.9331 41.5033C55.8402 41.5514 55.7558 41.5993 55.6794 41.6483C55.603 41.6971 55.5348 41.7468 55.474 41.7981C55.4134 41.8494 55.3602 41.9024 55.3144 41.9577C55.2685 42.0131 55.2299 42.071 55.198 42.1321C55.1661 42.1933 55.1408 42.2578 55.122 42.3264C55.1032 42.395 55.0905 42.4678 55.0839 42.5455C55.0772 42.6232 55.0764 42.7059 55.0811 42.7943C55.0858 42.8827 55.0959 42.9771 55.111 43.0779C55.1261 43.1788 55.1463 43.2863 55.1709 43.4014C55.1956 43.5164 55.2249 43.6388 55.2584 43.7695C55.2918 43.9002 55.3293 44.0393 55.3706 44.1874C55.4118 44.3355 55.4569 44.4928 55.5051 44.66C55.4415 44.4977 55.3814 44.3452 55.3238 44.2023C55.2663 44.0592 55.2114 43.9258 55.1581 43.8013C55.1049 43.6769 55.0536 43.5615 55.0029 43.4547C54.9523 43.348 54.9026 43.2498 54.8529 43.1599C54.8032 43.07 54.7537 42.9883 54.7031 42.9144C54.6525 42.8405 54.6013 42.7744 54.5482 42.7156C54.4952 42.6569 54.4405 42.6055 54.3833 42.5612C54.3261 42.5168 54.2663 42.4793 54.2031 42.4485C54.1399 42.4176 54.0733 42.3932 54.0023 42.375C53.9314 42.3568 53.8562 42.3445 53.776 42.3381C53.6956 42.3316 53.6102 42.3309 53.5188 42.3354C53.4275 42.3399 53.33 42.3497 53.2257 42.3643C53.1215 42.3789 53.0104 42.3984 52.8915 42.4223C52.7726 42.4462 52.6461 42.4746 52.511 42.5069C52.376 42.5393 52.2323 42.5756 52.0792 42.6155C51.9262 42.6554 51.7636 42.6991 51.5908 42.7457C51.7585 42.6841 51.9162 42.626 52.0639 42.5702C52.2116 42.5146 52.3495 42.4615 52.4782 42.4099C52.6068 42.3584 52.726 42.3087 52.8364 42.2597C52.9466 42.2108 53.0481 42.1627 53.141 42.1146C53.2339 42.0665 53.3183 42.0185 53.3947 41.9696C53.4712 41.9208 53.5393 41.8711 53.6001 41.8197C53.6608 41.7685 53.7139 41.7155 53.7597 41.6602C53.8056 41.6048 53.8443 41.5469 53.8762 41.4857C53.9081 41.4246 53.9333 41.3601 53.9521 41.2915C53.971 41.2228 53.9836 41.15 53.9902 41.0724C53.9969 40.9947 53.9977 40.912 53.993 40.8236C53.9884 40.7352 53.9783 40.6408 53.9632 40.54C53.9481 40.4391 53.9279 40.3316 53.9032 40.2165C53.8785 40.1015 53.8492 39.979 53.8158 39.8484C53.7824 39.7177 53.7448 39.5786 53.7036 39.4305C53.6623 39.2824 53.6172 39.1251 53.5691 38.9579C53.6327 39.1201 53.6927 39.2727 53.7503 39.4156C53.8078 39.5586 53.8628 39.6921 53.916 39.8165C53.9693 39.941 54.0206 40.0564 54.0712 40.1632C54.1218 40.2699 54.1715 40.3681 54.2212 40.458C54.2709 40.5479 54.3205 40.6296 54.3711 40.7035C54.4215 40.7775 54.4728 40.8434 54.5259 40.9022C54.5789 40.9609 54.6336 41.0124 54.6908 41.0567C54.7481 41.1011 54.8079 41.1385 54.8711 41.1694C54.9342 41.2003 55.0009 41.2247 55.0718 41.2429C55.1428 41.2611 55.218 41.2734 55.2982 41.2798C55.3785 41.2862 55.464 41.287 55.5553 41.2825C55.6467 41.278 55.7442 41.2682 55.8484 41.2536C55.9527 41.239 56.0638 41.2194 56.1827 41.1956C56.3015 41.1717 56.4281 41.1433 56.5631 41.111C56.6981 41.0786 56.8419 41.0423 56.9949 41.0024C57.148 40.9625 57.3105 40.9188 57.4833 40.8722Z" fill="url(#paint6_linear_1791_12743)"/>
<path d="M66.6644 9.21485C66.3237 9.08956 66.0031 8.9725 65.7009 8.86423C65.3987 8.75612 65.115 8.65695 64.8478 8.56731C64.5807 8.47782 64.3301 8.39785 64.0941 8.32828C63.8583 8.2587 63.6371 8.19952 63.429 8.15131C63.2207 8.10309 63.0255 8.066 62.8414 8.04059C62.6573 8.01519 62.4843 8.00147 62.3205 8.00032C62.1567 7.99916 62.0024 8.01028 61.8554 8.03467C61.7085 8.05907 61.569 8.09645 61.4352 8.14784C61.3014 8.19908 61.1733 8.26433 61.049 8.34386C60.9248 8.42354 60.8043 8.51766 60.6858 8.62707C60.5674 8.73649 60.451 8.86106 60.3348 9.00165C60.2186 9.14225 60.1026 9.29872 59.985 9.47179C59.8675 9.64486 59.7482 9.83453 59.6255 10.0415C59.5029 10.2485 59.3769 10.4728 59.2455 10.7152C59.1142 10.9576 58.9776 11.2178 58.8339 11.4968C58.6903 11.7759 58.5396 12.0736 58.38 12.3908C58.5095 12.0611 58.6305 11.7509 58.7423 11.4584C58.8541 11.166 58.9565 10.8914 59.0492 10.6329C59.1417 10.3744 59.2243 10.1319 59.2962 9.90353C59.3681 9.67532 59.4292 9.46125 59.4791 9.25989C59.5289 9.05838 59.5672 8.86943 59.5935 8.69131C59.6197 8.51318 59.6339 8.34574 59.6351 8.18725C59.6363 8.02876 59.6248 7.87936 59.5996 7.73717C59.5744 7.59499 59.5357 7.46003 59.4826 7.33055C59.4297 7.20107 59.3623 7.07708 59.2801 6.95684C59.1977 6.8366 59.1005 6.71996 58.9874 6.60535C58.8743 6.49074 58.7456 6.37815 58.6003 6.2657C58.455 6.15326 58.2935 6.04096 58.1145 5.92721C57.9356 5.81346 57.7396 5.69799 57.5257 5.57933C57.3118 5.46068 57.08 5.33871 56.8296 5.21154C56.5791 5.08451 56.3102 4.95229 56.0218 4.81329C55.7335 4.67428 55.4258 4.52849 55.0981 4.37404C55.4388 4.49933 55.7593 4.6164 56.0615 4.72466C56.3637 4.83277 56.6474 4.93194 56.9146 5.02158C57.1818 5.11107 57.4324 5.19104 57.6683 5.26062C57.9042 5.33019 58.1254 5.38937 58.3335 5.43759C58.5417 5.4858 58.737 5.52289 58.921 5.5483C59.1051 5.5737 59.2781 5.58742 59.4419 5.58857C59.6057 5.58973 59.7601 5.57861 59.907 5.55422C60.0539 5.52982 60.1934 5.49244 60.3272 5.44105C60.461 5.38981 60.5892 5.32456 60.7134 5.24503C60.8377 5.16535 60.9582 5.07123 61.0766 4.96182C61.1951 4.8524 61.3114 4.72783 61.4276 4.58724C61.5438 4.44664 61.6599 4.29032 61.7774 4.1171C61.895 3.94403 62.0143 3.75436 62.1369 3.54736C62.2595 3.34037 62.3856 3.11606 62.517 2.8737C62.6482 2.63134 62.7849 2.37108 62.9285 2.09206C63.0722 1.81304 63.2228 1.51525 63.3824 1.19812C63.253 1.52781 63.132 1.83801 63.0201 2.13046C62.9084 2.4229 62.8059 2.69745 62.7133 2.95598C62.6208 3.2145 62.5382 3.457 62.4663 3.68536C62.3944 3.91357 62.3332 4.12764 62.2834 4.329C62.2336 4.53051 62.1952 4.71946 62.169 4.89758C62.1427 5.07571 62.1285 5.24315 62.1274 5.40164C62.1262 5.56014 62.1376 5.70954 62.1629 5.85172C62.1881 5.9939 62.2267 6.12886 62.2798 6.25834C62.3328 6.38782 62.4002 6.51181 62.4824 6.63206C62.5647 6.7523 62.662 6.86893 62.775 6.98354C62.8881 7.09815 63.0168 7.21074 63.1621 7.32319C63.3074 7.43563 63.4689 7.54794 63.6479 7.66168C63.8268 7.77543 64.0228 7.8909 64.2367 8.00956C64.4506 8.12821 64.6824 8.25018 64.9329 8.37735C65.1833 8.50438 65.4523 8.6366 65.7406 8.77561C66.0289 8.91461 66.3367 9.0604 66.6644 9.21485Z" fill="url(#paint7_linear_1791_12743)"/>
<path d="M46.9348 34.4788H46.5183L46.3332 34.6107C43.6769 36.6066 40.4189 37.7929 36.8925 37.7929C33.1348 37.7929 29.6732 36.456 26.915 34.2058L26.0265 34.2246L24.8788 34.2529C23.4534 34.2905 21.9633 34.3188 20.5287 34.3565H20.5009L19.8253 34.3753C23.2591 39.7042 29.0808 43.2348 35.6986 43.2348C42.3163 43.2348 48.0548 39.7607 51.4978 34.4788H46.9348Z" fill="url(#paint8_radial_1791_12743)"/>
<path d="M46.9348 34.4788H46.5183L46.3332 34.6107C43.6769 36.6066 40.4189 37.7929 36.8925 37.7929C33.1348 37.7929 29.6732 36.456 26.915 34.2058L26.0265 34.2246L24.8788 34.2529C23.4534 34.2905 21.9633 34.3188 20.5287 34.3565H20.5009L19.8253 34.3753C23.2591 39.7042 29.0808 43.2348 35.6986 43.2348C42.3163 43.2348 48.0548 39.7607 51.4978 34.4788H46.9348Z" fill="url(#paint9_linear_1791_12743)"/>
<path d="M46.935 34.4788H46.5185L46.3334 34.6107C43.677 36.6066 40.419 37.7929 36.8927 37.7929C33.1349 37.7929 29.6733 36.456 26.9152 34.2058L26.0266 34.2246L24.8789 34.2529C24.3236 34.2623 23.7498 34.2811 23.1759 34.2905C26.6468 37.8024 31.691 40.0243 36.5317 40.0243C41.3724 40.0243 45.5466 37.8777 48.5177 34.4788H46.935Z" fill="url(#paint10_linear_1791_12743)"/>
<path d="M51.3404 34.479C47.9158 40.0527 41.3259 43.6681 34.1158 43.1314C34.2731 43.1597 34.4212 43.1785 34.5786 43.1973C41.3907 44.0824 48.6748 40.2881 52.303 34.479H51.3404Z" fill="#7A60FF"/>
<path d="M23.9254 34.272C23.694 34.272 23.4534 34.2814 23.222 34.2908C26.2671 37.7555 30.7005 39.9869 35.6985 40.0905C38.2438 40.147 40.6595 39.6386 42.8438 38.697C40.7983 39.4973 38.5585 39.921 36.2168 39.8739C31.3299 39.7704 26.9613 37.6143 23.9254 34.272Z" fill="#7A60FF"/>
<path d="M27.3978 18.1563C27.1679 22.9948 26.9372 27.8337 26.7073 32.672C28.3645 32.6548 30.0215 32.6372 31.6787 32.62C31.8395 27.7987 32.0011 22.9774 32.1621 18.1561H27.3978V18.1563Z" fill="url(#paint11_linear_1791_12743)"/>
<path d="M31.9263 25.2212C31.1681 26.4554 30.1512 27.545 28.8264 27.7186C28.0162 27.8247 27.4601 27.54 26.9591 27.3884C26.8753 29.1497 26.7914 30.9109 26.7078 32.6721C28.3649 32.6549 30.022 32.6372 31.6791 32.62C31.7614 30.1537 31.8439 27.6874 31.9263 25.2211V25.2212Z" fill="url(#paint12_linear_1791_12743)"/>
<path d="M27.3979 18.1561H32.1621L31.6787 32.62L26.7073 32.6719L27.3979 18.1561L27.8459 18.5072L27.2697 32.0246L31.1362 31.9645L31.7666 18.4663L27.3815 18.5001L27.3979 18.1561Z" fill="url(#paint13_linear_1791_12743)"/>
<path d="M27.8459 18.507C27.8212 19.0852 27.7158 20.8916 27.7169 21.5326C28.0866 20.9296 28.9158 20.4008 29.6237 20.2962C30.8177 20.1197 31.3443 20.6292 31.635 21.2846C31.6402 20.548 31.7614 19.2025 31.7666 18.4659C30.1137 18.4861 28.9719 18.4774 27.8459 18.507Z" fill="#FFD76F"/>
<path d="M14.2306 17.228C13.8352 16.6313 13.3814 16.211 13.0474 15.9484C11.835 14.9927 10.4757 14.7455 8.87138 14.6013C7.20516 14.4511 4.68984 14.3595 1.49373 14.736C1.26185 20.9774 1.02935 27.2183 0.797623 33.4597C2.56063 33.3924 4.32425 33.325 6.08726 33.2577V28.139C6.7388 28.2621 7.80846 28.382 9.08013 28.139C9.64253 28.0312 11.2043 27.712 12.6297 26.4551C14.1192 25.1417 14.575 23.5833 14.7873 22.8182C14.985 22.1062 15.7171 19.4701 14.2306 17.228ZM9.81085 21.7069C9.61466 22.8203 8.72297 23.3968 8.41879 23.5928C7.41377 24.2421 6.36769 24.1659 6.05234 24.1315C6.0989 22.4255 6.14485 20.7188 6.19156 19.0128C7.37471 18.7433 8.46061 18.9461 9.18443 19.6862C10.0196 20.5402 9.83796 21.5532 9.81085 21.7068V21.7069Z" fill="url(#paint14_linear_1791_12743)"/>
<path d="M1.48819 18.2696V19.802C1.86175 19.2316 2.53228 18.3625 3.62322 17.5884C3.90871 17.3858 5.07685 16.584 6.7907 16.2033C9.00139 15.7125 11.3346 16.0311 12.8323 16.9072C13.169 17.1042 13.8887 17.5251 14.4747 18.3603C14.722 18.7127 14.8746 19.0377 14.9674 19.2685C14.917 19.0293 14.8666 18.7901 14.8162 18.5507L14.4929 17.799L13.8933 16.8907L13.1581 16.1894L12.0424 15.4226L10.1758 14.9029L8.09546 14.7061L5.48334 14.6455L2.43318 14.7112L1.66157 14.8877L1.48819 18.2694V18.2696Z" fill="#FFD76F"/>
<path d="M14.0291 24.433C13.0909 25.019 11.7333 25.6998 9.99357 26.0678C5.82122 26.9502 2.39063 25.4113 1.2185 24.819C1.1871 24.8152 1.15387 24.8117 1.11926 24.8083C1.01204 27.6917 0.904834 30.5753 0.797623 33.4589C2.56063 33.3916 4.32425 33.3242 6.08726 33.2569V28.1381C6.7388 28.2613 7.80846 28.3812 9.08013 28.1381C9.64253 28.0304 11.2043 27.7111 12.6297 26.4543C13.307 25.8572 13.7705 25.2092 14.0947 24.6083C14.0673 24.5331 14.0449 24.4739 14.029 24.4329L14.0291 24.433Z" fill="url(#paint15_linear_1791_12743)"/>
<path d="M14.2306 17.228C13.8352 16.6313 13.3814 16.211 13.0474 15.9484C11.835 14.9927 10.4757 14.7455 8.87138 14.6013C7.20517 14.4511 4.68984 14.3595 1.49373 14.736C1.26185 20.9774 1.02935 27.2183 0.797623 33.4597C2.56063 33.3924 4.32425 33.325 6.08726 33.2577V32.4975C4.38337 32.5604 2.89881 32.6355 1.19492 32.6982C1.41899 26.8802 1.57567 20.8623 1.79974 15.0443C4.88864 14.6933 7.31973 14.7787 8.93019 14.9187C10.4808 15.053 11.7944 15.2835 12.9662 16.1744C13.2891 16.4192 13.7277 16.8109 14.1097 17.3672C15.5465 19.4572 14.8389 21.9144 14.6479 22.5781C14.4427 23.2913 14.0022 24.7441 12.5627 25.9683C11.185 27.1397 9.67546 27.4373 9.13205 27.5378C7.90311 27.7644 6.69836 27.451 6.07792 27.2946L6.08741 28.1391C6.73895 28.2623 7.80861 28.3822 9.08029 28.1391C9.64268 28.0314 11.2044 27.7121 12.6299 26.4553C14.1194 25.1419 14.5752 23.5834 14.7874 22.8184C14.9852 22.1064 15.7173 19.4703 14.2307 17.2282L14.2306 17.228Z" fill="url(#paint16_linear_1791_12743)"/>
<path d="M16.562 15.1746C18.1858 15.1296 19.8102 15.0851 21.434 15.0399L21.0163 28.3756C22.2692 28.3306 23.522 28.2861 24.7748 28.2409C24.7283 29.8573 24.6823 31.4738 24.6356 33.0902L15.8659 33.2922C16.0976 27.2528 16.3301 21.2141 16.5618 15.1745L16.562 15.1746Z" fill="url(#paint17_linear_1791_12743)"/>
<path d="M21.0867 26.1386C19.9197 26.6941 18.043 26.4611 16.173 25.3105C16.0706 27.9709 15.9685 30.6312 15.8663 33.2917L24.636 33.0897C24.6826 31.4733 24.7285 29.8568 24.7753 28.2404C23.5224 28.2854 22.2696 28.3299 21.0167 28.3751L21.0867 26.1387V26.1386Z" fill="url(#paint18_linear_1791_12743)"/>
<path d="M16.7584 15.4096C16.5746 21.0119 16.4847 26.5102 16.3009 32.1126C18.8739 32.1126 21.3205 32.08 23.8936 32.08C23.9369 30.788 23.9256 29.5619 23.9689 28.2699C24.2057 28.2751 24.538 28.2358 24.7748 28.241C24.7313 29.8069 24.6791 31.5245 24.6356 33.0903C21.7628 33.1593 18.7388 33.2234 15.8659 33.2923C16.0771 27.3126 16.3506 21.1545 16.5618 15.1746C17.96 15.1334 20.0356 15.0811 21.4338 15.0399C21.4086 15.8472 21.033 28.4015 21.0162 28.3756L20.5225 28.3928L20.8797 15.2468C20.8797 15.2468 17.0821 15.3882 16.758 15.4096H16.7584Z" fill="url(#paint19_linear_1791_12743)"/>
<path d="M16.6283 19.8404C17.0537 19.2187 17.9713 18.6798 18.7054 18.7277C19.6205 18.7874 20.4938 19.5652 20.724 20.973C20.7813 19.3131 20.8222 16.9063 20.8796 15.2463C19.5709 15.2816 16.758 15.4091 16.758 15.4091C16.758 15.4091 16.6583 18.4779 16.6283 19.8406V19.8404Z" fill="#FFD76F"/>
<path d="M34.5193 14.5003C34.2639 20.7862 34.0093 27.0728 33.7538 33.3587C35.2386 33.3137 36.7237 33.2692 38.2082 33.224C38.2549 30.53 38.3008 27.8358 38.3475 25.1418C39.2057 28.083 40.0644 31.0237 40.9226 33.9649C42.4539 33.9427 43.9851 33.9199 45.5164 33.8976C45.6786 27.5887 45.8414 21.2806 46.0036 14.9717C44.5419 15.0168 43.0804 15.0612 41.6188 15.1065C41.549 18.3171 41.4795 21.5271 41.4101 24.7378C40.5976 21.3028 39.7862 17.8679 38.974 14.433C37.4894 14.4552 36.0041 14.478 34.5193 14.5003Z" fill="url(#paint20_linear_1791_12743)"/>
<path d="M38.3471 25.1415C39.2052 28.0828 40.064 31.0234 40.9222 33.9646C42.4534 33.9424 43.9847 33.9196 45.516 33.8974C45.5734 31.6604 45.5803 31.3932 45.6381 29.1564C41.2926 29.4287 40.6356 20.1652 36.7408 21.6033C35.6284 22.014 34.7878 22.7878 34.155 23.4664C34.0213 26.764 33.8874 30.0614 33.7534 33.3586C35.2381 33.3136 36.7233 33.2691 38.2077 33.2239C38.2544 30.5299 38.3004 27.8357 38.3471 25.1417V25.1415Z" fill="url(#paint21_linear_1791_12743)"/>
<path d="M34.4691 15.738L33.7538 33.3589L38.2082 33.2242L38.3474 25.1419L40.9226 33.9651L45.5164 33.8976L46.0036 14.9719L41.6188 15.1066L41.6149 15.2868L45.5892 15.3572L44.8067 32.5397L41.2655 32.7666L37.9925 22.1484L37.7853 32.4412L34.1563 32.4071L35.1145 15.0393L39.0527 14.7663L38.974 14.433L34.5193 14.5004L34.4691 15.738Z" fill="url(#paint22_linear_1791_12743)"/>
<path d="M35.1218 15.0379C35.0175 16.7079 34.9433 18.3546 34.839 20.0247C34.8895 19.9275 35.5917 18.6833 37.1803 18.4438C39.087 18.1563 40.1882 19.7288 40.241 19.7953C39.8589 18.16 39.4311 16.4014 39.0522 14.7662C37.5188 14.8752 36.2411 14.961 35.1217 15.0379H35.1218Z" fill="#FFD76F"/>
<path d="M41.6143 15.2869C41.6065 16.6415 41.5231 18.4935 41.5153 19.8482C41.5647 19.7656 42.0897 18.9518 43.0912 18.8789C44.1313 18.8032 44.9954 19.5767 45.3579 20.4228C45.3944 18.9672 45.5521 16.8128 45.5886 15.3573C44.1391 15.3322 42.8645 15.3002 41.6143 15.2869Z" fill="#FFD76F"/>
<path d="M67.8335 13.8559C63.3275 13.4943 59.3021 17.5535 58.8421 22.9228C58.3819 28.2921 61.6613 32.9374 66.1676 33.2991C70.6735 33.6607 74.6989 29.6015 75.1589 24.2321C75.6191 18.8629 72.3394 14.2175 67.8335 13.8559ZM69.8136 23.9849C69.6021 26.4574 68.1635 28.3601 66.6016 28.2348C65.0397 28.1096 63.9449 26.0035 64.1564 23.5311C64.3682 21.0586 65.8069 19.1559 67.3688 19.2811C68.9307 19.4064 70.0255 21.5125 69.8136 23.9851V23.9849Z" fill="url(#paint23_linear_1791_12743)"/>
<path d="M71.5905 26.8406C70.8561 25.9114 70.4604 24.9613 70.2466 24.1663C69.8353 26.6269 68.2486 28.4375 66.4851 28.3268C64.911 28.228 63.681 26.6286 63.3786 24.5143C62.7361 25.23 62.0029 25.7148 61.1731 25.7812C60.2087 25.8582 59.4178 25.3456 58.8618 25.128C59.3251 29.51 62.2927 32.9878 66.1673 33.2988C69.2823 33.5489 72.1673 31.6862 73.804 28.7386C73.0927 28.3313 72.2917 27.7276 71.5905 26.8407V26.8406Z" fill="url(#paint24_linear_1791_12743)"/>
<path d="M62.198 16.1017C60.101 18.2325 60.0313 21.1608 60.016 21.8005C60.0039 22.3073 60.0359 22.7211 60.0629 22.9812C60.2531 22.1226 60.9847 19.3588 63.6057 17.6456C64.3291 17.1728 65.7372 16.2524 67.6413 16.4423C67.9407 16.4722 70.0133 16.7105 71.278 18.3948C71.6338 18.8685 71.8271 19.3254 71.9349 19.6436C72.2232 18.9715 72.4404 17.5986 71.9349 16.2592C71.543 15.2206 70.7431 15.0011 70.3865 14.694C69.9457 14.51 69.3245 14.2963 68.5564 14.1718C67.3258 13.9722 66.3663 14.1065 66.0929 14.1492C64.6126 14.3802 63.6167 14.9917 63.3712 15.1481C63.1902 15.2634 62.7093 15.5822 62.198 16.1017Z" fill="#FFD76F"/>
<path d="M74.991 21.0481C74.9913 21.0496 74.9917 21.0509 74.9921 21.0524C74.9859 21.0209 74.9795 20.9894 74.9731 20.958C74.9711 20.9484 74.9691 20.9389 74.9671 20.9293C74.9573 20.8821 74.9472 20.8351 74.9368 20.7883C74.9348 20.7796 74.9328 20.7708 74.9309 20.7621C74.9204 20.7152 74.9095 20.6684 74.8985 20.6219C74.8966 20.6143 74.895 20.6066 74.8931 20.599C74.8813 20.5504 74.8692 20.502 74.8568 20.4535C74.8545 20.4445 74.8522 20.4353 74.8499 20.4262C74.8377 20.3788 74.8251 20.3317 74.8122 20.2847C74.8095 20.2749 74.8069 20.265 74.8041 20.2552C74.7913 20.2087 74.7781 20.1623 74.7646 20.116C74.7617 20.1061 74.7588 20.096 74.7559 20.0861C74.7423 20.04 74.7285 19.994 74.7142 19.9481C74.7112 19.9383 74.7081 19.9285 74.7052 19.9188C74.6908 19.8727 74.6761 19.8267 74.6611 19.7809C74.6582 19.7719 74.6551 19.7628 74.6522 19.7539C74.6369 19.7076 74.6213 19.6612 74.6053 19.6152C74.6026 19.6074 74.5998 19.5995 74.5971 19.5917C74.5807 19.5445 74.564 19.4975 74.5468 19.4509C74.5445 19.4446 74.5422 19.4384 74.5399 19.4322C74.5222 19.3839 74.5041 19.3355 74.4857 19.2877C74.4843 19.2841 74.483 19.2804 74.4816 19.2769C74.4624 19.2272 74.443 19.1779 74.4232 19.1288C74.4228 19.1276 74.4223 19.1266 74.4218 19.1254C74.4018 19.0759 74.3814 19.0265 74.3607 18.9775C74.359 18.9736 74.3575 18.9698 74.356 18.9661C74.3359 18.9188 74.3154 18.8716 74.2947 18.8248C74.2924 18.8195 74.29 18.8141 74.2877 18.8088C74.2673 18.763 74.2466 18.7174 74.2257 18.672C74.224 18.6683 74.2223 18.6646 74.2206 18.661C74.2207 18.6615 74.2209 18.6618 74.2211 18.6622C72.9739 15.9707 70.642 14.0813 67.8337 13.8559C64.4364 13.5832 61.3124 15.8238 59.7836 19.2441C59.7836 19.2444 59.7833 19.2447 59.7833 19.245C59.6433 19.5582 59.5168 19.8813 59.4045 20.2133C59.4039 20.2153 59.4031 20.2173 59.4025 20.2193C59.391 20.2533 59.3798 20.2872 59.3687 20.3213C59.367 20.3265 59.3653 20.3318 59.3636 20.337C59.3535 20.3678 59.3437 20.3988 59.3339 20.4299C59.3316 20.4372 59.3293 20.4446 59.327 20.4519C59.318 20.4809 59.3089 20.51 59.3 20.539C59.2973 20.5479 59.2947 20.5567 59.2921 20.5655C59.2836 20.5933 59.2754 20.6211 59.2673 20.649C59.2644 20.6589 59.2614 20.6688 59.2585 20.6788C59.2507 20.7056 59.2431 20.7326 59.2354 20.7596C59.2323 20.7702 59.2293 20.781 59.2264 20.7917C59.219 20.8181 59.2118 20.8445 59.2046 20.871C59.2016 20.8823 59.1985 20.8935 59.1954 20.9048C59.1884 20.9309 59.1816 20.957 59.1748 20.9831C59.1717 20.9948 59.1686 21.0063 59.1657 21.018C59.159 21.0441 59.1524 21.0702 59.146 21.0963C59.143 21.108 59.14 21.1197 59.1372 21.1316C59.1308 21.1579 59.1244 21.1843 59.1181 21.2107C59.1153 21.2223 59.1126 21.2338 59.1098 21.2454C59.1034 21.273 59.097 21.3005 59.0907 21.3282C59.0882 21.3386 59.0859 21.3491 59.0835 21.3595C59.0763 21.3914 59.0694 21.4232 59.0625 21.4551C59.0611 21.4615 59.0597 21.4677 59.0584 21.4739C59.0502 21.5122 59.0421 21.5504 59.0345 21.5888C59.0325 21.599 59.0305 21.6092 59.0283 21.6193C59.0231 21.6456 59.0178 21.6718 59.0127 21.698C59.0127 21.6977 59.0127 21.6976 59.0129 21.6973C58.9355 22.0969 58.8782 22.5059 58.8426 22.9228C58.3823 28.2921 61.6617 32.9374 66.168 33.2991C70.6739 33.6607 74.6994 29.6015 75.1593 24.2321C75.2538 23.13 75.1904 22.0585 74.9913 21.0481H74.991ZM74.9037 23.5305C74.4581 28.7318 70.5586 32.664 66.1937 32.3136C61.8285 31.9632 58.6516 27.4634 59.0976 22.2621C59.1493 21.6582 59.2477 21.0714 59.388 20.5064C60.8313 16.6725 64.1844 14.0969 67.8498 14.3911C70.9176 14.6373 73.4277 16.8315 74.6167 19.8924C74.9051 21.0296 75.0129 22.2591 74.9038 23.5305H74.9037Z" fill="url(#paint25_linear_1791_12743)"/>
<path d="M48.0151 15.2024C47.7832 21.421 47.6202 27.1013 47.3887 33.3199H52.1216C52.1683 31.1646 52.2139 29.0094 52.2606 26.8541C53.2353 29.3683 54.2096 31.8833 55.1838 34.3974C56.9468 33.6787 58.7105 32.9608 60.4733 32.2421C58.6869 29.0315 56.9007 25.8215 55.1143 22.6108C56.9239 20.2989 61.2042 15.0676 61.8308 14.192C60.1832 14.3045 57.1096 14.147 55.4621 14.2593C54.5805 15.8306 53.5602 17.47 52.6781 19.0413C52.7708 17.4922 52.7942 16.4819 52.8869 14.9329C51.2633 15.0224 49.6387 15.1127 48.0151 15.2024Z" fill="url(#paint26_linear_1791_12743)"/>
<path d="M48.015 15.2026L47.9978 15.6984L52.887 15.2221V14.9332L48.015 15.2026Z" fill="#FE4349"/>
<path d="M55.5671 29.5297C54.8236 29.773 54.086 29.8053 53.3676 29.7107C53.9731 31.2731 54.5785 32.8356 55.1839 34.3977C56.947 33.679 58.7106 32.9611 60.4734 32.2424C59.6494 30.7614 58.8254 29.2805 58.0015 27.7997C57.4046 28.5167 56.6114 29.1881 55.5671 29.5297Z" fill="url(#paint27_linear_1791_12743)"/>
<path d="M47.6103 26.911C47.5476 28.766 47.4605 31.3936 47.3887 33.3198H52.1216C52.1494 32.0311 52.177 30.7425 52.2047 29.4539C50.4108 28.9138 48.8254 28.1822 47.6104 26.911H47.6103Z" fill="url(#paint28_linear_1791_12743)"/>
<path d="M48.0151 15.2024L47.3887 33.3199H52.1216L52.2605 26.8542L55.1838 34.3976L60.4733 32.2423L55.1143 22.611L61.8308 14.192L59.7173 14.2341L54.7927 22.0447L59.8881 31.1904L55.2111 33.0336L51.7503 23.4448L51.7976 32.6553L47.8321 32.6401L48.4709 15.1772L48.0151 15.2024Z" fill="url(#paint29_linear_1791_12743)"/>
<path d="M51.8226 14.9921L51.9644 20.0662L52.6784 19.0416L52.8873 14.9332L51.8226 14.9921Z" fill="#FE4349"/>
<path d="M48.4536 15.6545C48.3719 17.088 48.3562 18.8514 48.2849 20.2666C48.4242 19.5728 49.2455 18.7973 49.9047 18.6925C50.7169 18.5634 51.62 18.8868 51.9486 20.0901C51.9199 19.6234 51.9499 19.5426 51.9408 19.1642C51.9095 18.0264 51.8561 16.4788 51.8224 15.3262C50.5398 15.4372 49.7362 15.5434 48.4536 15.6545Z" fill="#FFD76F"/>
<path d="M55.4624 14.2591C54.7983 15.4301 53.7341 17.1959 53.0722 18.35C53.2191 18.2203 54.2457 16.994 55.5621 17.2411C55.8022 17.2861 56.1245 17.3697 56.498 17.7154C56.7785 17.9749 56.9025 18.4459 56.9554 18.615C57.7077 17.4352 58.864 15.5008 59.736 14.2149C57.9527 14.2125 56.9341 14.2321 55.4625 14.2591H55.4624Z" fill="#FFD76F"/>
<path d="M55.4621 14.2594L55.3545 14.4488L61.3503 14.8249L61.8308 14.192L55.4621 14.2594Z" fill="#FE4349"/>
<defs>
<radialGradient id="paint0_radial_1791_12743" cx="0" cy="0" r="1" gradientUnits="userSpaceOnUse" gradientTransform="translate(25.1012 8.98195) rotate(56.2307) scale(8.95345 9.07064)">
<stop stop-color="#7269E1"/>
<stop offset="1" stop-color="#1F184E"/>
</radialGradient>
<radialGradient id="paint1_radial_1791_12743" cx="0" cy="0" r="1" gradientUnits="userSpaceOnUse" gradientTransform="translate(43.3259 5.34905) rotate(90) scale(6.6654 17.5719)">
<stop stop-color="#2F2A5C"/>
<stop offset="1" stop-color="#2F2A5C" stop-opacity="0"/>
</radialGradient>
<linearGradient id="paint2_linear_1791_12743" x1="22.7036" y1="13.9545" x2="18.3744" y2="16.2916" gradientUnits="userSpaceOnUse">
<stop stop-color="#8E7BF0"/>
<stop offset="1" stop-color="#8E7BF0" stop-opacity="0"/>
</linearGradient>
<linearGradient id="paint3_linear_1791_12743" x1="26.6052" y1="17.8067" x2="20.2192" y2="20.47" gradientUnits="userSpaceOnUse">
<stop stop-color="#8E7BF0"/>
<stop offset="1" stop-color="#8E7BF0" stop-opacity="0"/>
</linearGradient>
<radialGradient id="paint4_radial_1791_12743" cx="0" cy="0" r="1" gradientUnits="userSpaceOnUse" gradientTransform="translate(33.3471 7.83524) rotate(21.5832) scale(17.9162 15.6829)">
<stop stop-color="#443296"/>
<stop offset="0.61983" stop-color="#443296" stop-opacity="0.43"/>
<stop offset="1" stop-color="#443296" stop-opacity="0"/>
</radialGradient>
<linearGradient id="paint5_linear_1791_12743" x1="11.7035" y1="9.01042" x2="15.8985" y2="11.8522" gradientUnits="userSpaceOnUse">
<stop stop-color="#F89235"/>
<stop offset="1" stop-color="#FFEC3F"/>
</linearGradient>
<linearGradient id="paint6_linear_1791_12743" x1="52.3422" y1="39.6701" x2="56.4801" y2="44.4912" gradientUnits="userSpaceOnUse">
<stop stop-color="#F89235"/>
<stop offset="1" stop-color="#FFEC3F"/>
</linearGradient>
<linearGradient id="paint7_linear_1791_12743" x1="60.5248" y1="0.680251" x2="60.5248" y2="13.4061" gradientUnits="userSpaceOnUse">
<stop stop-color="#F89235"/>
<stop offset="1" stop-color="#FFEC3F"/>
</linearGradient>
<radialGradient id="paint8_radial_1791_12743" cx="0" cy="0" r="1" gradientUnits="userSpaceOnUse" gradientTransform="translate(30.7133 36.23) rotate(44.7424) scale(12.0632 31.7998)">
<stop stop-color="#332B60" stop-opacity="0"/>
<stop offset="1" stop-color="#332B60"/>
</radialGradient>
<linearGradient id="paint9_linear_1791_12743" x1="20.8525" y1="34.1966" x2="26.9447" y2="38.8035" gradientUnits="userSpaceOnUse">
<stop stop-color="#131629"/>
<stop offset="1" stop-color="#131629" stop-opacity="0"/>
</linearGradient>
<linearGradient id="paint10_linear_1791_12743" x1="31.3729" y1="36.2555" x2="40.1663" y2="43.3591" gradientUnits="userSpaceOnUse">
<stop stop-color="#48349B"/>
<stop offset="1" stop-color="#3D3188"/>
</linearGradient>
<linearGradient id="paint11_linear_1791_12743" x1="29.2666" y1="17.4845" x2="29.2666" y2="33.9888" gradientUnits="userSpaceOnUse">
<stop stop-color="#F89235"/>
<stop offset="1" stop-color="#FFEC3F"/>
</linearGradient>
<linearGradient id="paint12_linear_1791_12743" x1="29.3148" y1="32.6693" x2="29.3148" y2="24.8226" gradientUnits="userSpaceOnUse">
<stop stop-color="#FD4844"/>
<stop offset="1" stop-color="#FD4844" stop-opacity="0.34"/>
</linearGradient>
<linearGradient id="paint13_linear_1791_12743" x1="29.4347" y1="17.582" x2="29.4347" y2="34.1484" gradientUnits="userSpaceOnUse">
<stop stop-color="#FD3D43"/>
<stop offset="1" stop-color="#FAD025"/>
</linearGradient>
<linearGradient id="paint14_linear_1791_12743" x1="7.52784" y1="13.5922" x2="7.52784" y2="35.1823" gradientUnits="userSpaceOnUse">
<stop stop-color="#F89235"/>
<stop offset="1" stop-color="#FFEC3F"/>
</linearGradient>
<linearGradient id="paint15_linear_1791_12743" x1="7.4403" y1="33.4555" x2="7.4403" y2="23.9502" gradientUnits="userSpaceOnUse">
<stop stop-color="#FD4844"/>
<stop offset="1" stop-color="#FD4844" stop-opacity="0.34"/>
</linearGradient>
<linearGradient id="paint16_linear_1791_12743" x1="7.96998" y1="13.7198" x2="7.96998" y2="35.3913" gradientUnits="userSpaceOnUse">
<stop stop-color="#FD3D43"/>
<stop offset="1" stop-color="#FAD025"/>
</linearGradient>
<linearGradient id="paint17_linear_1791_12743" x1="20.0458" y1="14.1954" x2="20.0458" y2="34.9479" gradientUnits="userSpaceOnUse">
<stop stop-color="#F89235"/>
<stop offset="1" stop-color="#FFEC3F"/>
</linearGradient>
<linearGradient id="paint18_linear_1791_12743" x1="20.3169" y1="33.2887" x2="20.3169" y2="24.8838" gradientUnits="userSpaceOnUse">
<stop stop-color="#FD4844"/>
<stop offset="1" stop-color="#FD4844" stop-opacity="0.34"/>
</linearGradient>
<linearGradient id="paint19_linear_1791_12743" x1="20.3204" y1="14.318" x2="20.3204" y2="35.149" gradientUnits="userSpaceOnUse">
<stop stop-color="#FD3D43"/>
<stop offset="1" stop-color="#FAD025"/>
</linearGradient>
<linearGradient id="paint20_linear_1791_12743" x1="39.5012" y1="13.5293" x2="39.5012" y2="35.7367" gradientUnits="userSpaceOnUse">
<stop stop-color="#F89235"/>
<stop offset="1" stop-color="#FFEC3F"/>
</linearGradient>
<linearGradient id="paint21_linear_1791_12743" x1="39.6905" y1="33.9599" x2="39.6905" y2="20.7824" gradientUnits="userSpaceOnUse">
<stop stop-color="#FD4844"/>
<stop offset="1" stop-color="#FD4844" stop-opacity="0.34"/>
</linearGradient>
<linearGradient id="paint22_linear_1791_12743" x1="39.8787" y1="13.6604" x2="39.8787" y2="35.9519" gradientUnits="userSpaceOnUse">
<stop stop-color="#FD3D43"/>
<stop offset="1" stop-color="#FAD025"/>
</linearGradient>
<linearGradient id="paint23_linear_1791_12743" x1="66.495" y1="12.9318" x2="66.495" y2="35.0893" gradientUnits="userSpaceOnUse">
<stop stop-color="#F89235"/>
<stop offset="1" stop-color="#FFEC3F"/>
</linearGradient>
<linearGradient id="paint24_linear_1791_12743" x1="66.3263" y1="33.3178" x2="66.3263" y2="23.6767" gradientUnits="userSpaceOnUse">
<stop stop-color="#FD4844"/>
<stop offset="1" stop-color="#FD4844" stop-opacity="0.34"/>
</linearGradient>
<linearGradient id="paint25_linear_1791_12743" x1="67.0009" y1="13.0627" x2="67.0009" y2="35.3038" gradientUnits="userSpaceOnUse">
<stop stop-color="#FD3D43"/>
<stop offset="1" stop-color="#FAD025"/>
</linearGradient>
<linearGradient id="paint26_linear_1791_12743" x1="54.1646" y1="13.2571" x2="54.1646" y2="36.2303" gradientUnits="userSpaceOnUse">
<stop stop-color="#F89235"/>
<stop offset="1" stop-color="#FFEC3F"/>
</linearGradient>
<linearGradient id="paint27_linear_1791_12743" x1="56.9174" y1="34.3952" x2="56.9174" y2="27.4469" gradientUnits="userSpaceOnUse">
<stop stop-color="#FD4844"/>
<stop offset="1" stop-color="#FD4844" stop-opacity="0.34"/>
</linearGradient>
<linearGradient id="paint28_linear_1791_12743" x1="49.7946" y1="33.3174" x2="49.7946" y2="26.5683" gradientUnits="userSpaceOnUse">
<stop stop-color="#FD4844"/>
<stop offset="1" stop-color="#FD4844" stop-opacity="0.34"/>
</linearGradient>
<linearGradient id="paint29_linear_1791_12743" x1="54.6097" y1="13.3928" x2="54.6097" y2="36.4529" gradientUnits="userSpaceOnUse">
<stop stop-color="#FD3D43"/>
<stop offset="1" stop-color="#FAD025"/>
</linearGradient>
</defs>
</svg>
